<svg width="36" height="36" viewBox="0 0 36 36" fill="none" xmlns="http://www.w3.org/2000/svg">
<path d="M16.3498 3.14997C9.44977 3.89997 3.89977 9.44997 3.14977 16.2C2.39977 23.25 6.44977 29.55 12.5998 31.95C13.0498 32.1 13.4998 31.8 13.4998 31.2V28.8C13.4998 28.8 12.8998 28.95 12.1498 28.95C10.0498 28.95 9.14977 27.15 8.99977 26.1C8.84977 25.5 8.54977 25.05 8.09977 24.6C7.64977 24.45 7.49977 24.45 7.49977 24.3C7.49977 24 7.94977 24 8.09977 24C8.99977 24 9.74977 25.05 10.0498 25.5C10.7998 26.7 11.6998 27 12.1498 27C12.7498 27 13.1998 26.85 13.4998 26.7C13.6498 25.65 14.0998 24.6 14.9998 24C11.5498 23.25 8.99977 21.3 8.99977 18C8.99977 16.35 9.74977 14.7 10.7998 13.5C10.6498 13.2 10.4998 12.45 10.4998 11.4C10.4998 10.8 10.4998 9.89997 10.9498 8.99997C10.9498 8.99997 13.0498 8.99997 15.1498 10.95C15.8998 10.65 16.9498 10.5 17.9998 10.5C19.0498 10.5 20.0998 10.65 20.9998 10.95C22.9498 8.99997 25.1998 8.99997 25.1998 8.99997C25.4998 9.89997 25.4998 10.8 25.4998 11.4C25.4998 12.6 25.3498 13.2 25.1998 13.5C26.2498 14.7 26.9998 16.2 26.9998 18C26.9998 21.3 24.4498 23.25 20.9998 24C21.8998 24.75 22.4998 26.1 22.4998 27.45V31.35C22.4998 31.8 22.9498 32.25 23.5498 32.1C29.0998 29.85 32.9998 24.45 32.9998 18.15C32.9998 9.14997 25.3498 2.09997 16.3498 3.14997Z" fill="#B0EA62"/>
</svg>
